# xmcd
#
# Track frame offsets:
#	150
#	14990
#	28125
#	38607
#	51507
#	61707
#	76942
#	89617
#	101232
#	112505
#
# Disc length: 1673 seconds
#
# Revision: 1
# Processed by: cddbd v1.5.1PL0 Copyright (c) Steve Scherf et al.
# Submitted via: EasyCDDAExtractor 6.5.7.1
#
DISCID=7c06870a
DTITLE=João Campeiro - Canto Campeiro
DYEAR=1900
DGENRE=Gaúcha
TTITLE0=O Bochincheiro
TTITLE1=Entre a Saudade e a China
TTITLE2=Gaúcho Intonado
TTITLE3=Mexa-se
TTITLE4=Mala de Sonhos
TTITLE5=O Velho pode Sim
TTITLE6=Canto Campeiro
TTITLE7=De Upa Upa a Uruguaiana
TTITLE8=Não é de se jogar fora
TTITLE9=Ventena
EXTD=
EXTT0=
EXTT1=
EXTT2=
EXTT3=
EXTT4=
EXTT5=
EXTT6=
EXTT7=
EXTT8=
EXTT9=
PLAYORDER=
